<?xml version="1.0" encoding="utf-8"?>
<!-- Generator: Adobe Illustrator 27.3.1, SVG Export Plug-In . SVG Version: 6.00 Build 0)  -->
<svg version="1.1" id="Layer_1" xmlns="http://www.w3.org/2000/svg" xmlns:xlink="http://www.w3.org/1999/xlink" x="0px" y="0px"
	 viewBox="0 0 100 100" style="enable-background:new 0 0 100 100;" xml:space="preserve">
<style type="text/css">
	.st0{fill:#FFFFFF;}
</style>
<path class="st0" d="M47.23,58.87h5.54c13.07,0,23.67,10.6,23.67,23.67v1.34C86.51,76,93,63.75,93,50C93,26.29,73.71,7,50,7
	S7,26.29,7,50c0,13.75,6.49,26,16.56,33.87v-1.34C23.56,69.46,34.16,58.87,47.23,58.87z"/>
<g>
	<path class="st0" d="M50,0C22.39,0,0,22.39,0,50c0,17.9,9.42,33.6,23.56,42.43C31.23,97.22,40.29,100,50,100s18.77-2.78,26.44-7.57
		C90.58,83.6,100,67.9,100,50C100,22.39,77.61,0,50,0z M76.44,83.87v-1.34c0-13.07-10.6-23.67-23.67-23.67h-5.54
		c-13.07,0-23.67,10.6-23.67,23.67v1.34C13.49,76,7,63.75,7,50C7,26.29,26.29,7,50,7s43,19.29,43,43C93,63.75,86.51,76,76.44,83.87z
		"/>
	<circle class="st0" cx="50" cy="36.26" r="17.6"/>
</g>
</svg>
