<?xml version="1.0" encoding="utf-8"?>
<!-- Generator: Adobe Illustrator 27.3.1, SVG Export Plug-In . SVG Version: 6.00 Build 0)  -->
<svg version="1.1" id="Layer_1" xmlns="http://www.w3.org/2000/svg" xmlns:xlink="http://www.w3.org/1999/xlink" x="0px" y="0px"
	 viewBox="0 0 100 100" style="enable-background:new 0 0 100 100;" xml:space="preserve">
<style type="text/css">
	.st0{fill:#FFFFFF;}
</style>
<path class="st0" d="M50,0C22.39,0,0,22.39,0,50s22.39,50,50,50s50-22.39,50-50S77.61,0,50,0z M50,93C26.25,93,7,73.75,7,50
	S26.25,7,50,7s43,19.25,43,43S73.75,93,50,93z"/>
<g>
	<path class="st0" d="M28.68,27.12v0.38h4.39v-8.23H29c-2.39,0-4.33,1.94-4.33,4.33v2.3h2.79C28.13,25.9,28.68,26.44,28.68,27.12z"
		/>
	<path class="st0" d="M28.68,72.01c0,0.67-0.54,1.22-1.22,1.22h-2.79v3.17c0,2.39,1.94,4.33,4.33,4.33h42
		c2.39,0,4.33-1.94,4.33-4.33v-4.77H28.68V72.01z"/>
	<path class="st0" d="M48.2,49.57l-7.57-6.32l-7.57,6.32V32.43h-4.39v0.38c0,0.67-0.54,1.22-1.22,1.22h-2.79V65.1h2.79
		c0.67,0,1.22,0.54,1.22,1.22v0.38h46.65V32.43H48.2V49.57z"/>
	<path class="st0" d="M71,19.27H48.2v8.23h27.13v-3.9C75.33,21.21,73.39,19.27,71,19.27z"/>
</g>
</svg>
