<?xml version="1.0" encoding="utf-8"?>
<!-- Generator: Adobe Illustrator 27.3.1, SVG Export Plug-In . SVG Version: 6.00 Build 0)  -->
<svg version="1.1" id="Layer_1" xmlns="http://www.w3.org/2000/svg" xmlns:xlink="http://www.w3.org/1999/xlink" x="0px" y="0px"
	 viewBox="0 0 100 100" style="enable-background:new 0 0 100 100;" xml:space="preserve">
<style type="text/css">
	.st0{fill:#378D42;}
	.st1{fill:#68AF6B;}
	.st2{fill:#39713D;}
	.st3{fill:#002500;}
</style>
<g>
	<path class="st0" d="M74.66,26.82c-4.83-2.07-10.44-3.81-15.45-2.24c-5.35,1.9-8.54,7.33-10.46,14.03
		c9.03,15.59,7.3,41.88,5.76,57.54c5.3-0.38,10.58-1.26,15.73-2.65c6.46-1.75,12.7-4.31,18.63-7.6c-2.64-8.75-0.81-18.06,1.6-26.64
		c1.41-5.44,3.17-11.39,1.92-16.83C90.39,34.36,81.67,30.1,74.66,26.82z M55.1,45.57c-1-5.33-5-8.53-1.6-10.13
		c5.4-2.54,8.24,2.47,9.57,7.91c1.34,5.43,0.39,10.34-2.11,10.95C58.46,54.91,56.13,51.07,55.1,45.57z M65.88,82.76
		c-0.22,5.59-2.48,10.04-5.06,9.94c-2.57-0.1-2.66-3.6-2.44-9.19c0.22-5.59-0.33-10.38,2.13-11.15
		C65.17,70.9,66.1,77.17,65.88,82.76z M73.63,71.39c-2.48,0.27-3.06-3.07-3.65-8.46c-0.59-5.39-1.79-9.91,0.45-10.99
		c4.24-2.05,6.03,3.82,6.62,9.21C77.65,66.53,76.11,71.12,73.63,71.39z M77.26,53.66c-1.29-0.51-1.25-3.71,0.1-7.17
		c1.35-3.45,4.43-5.09,6.59-3.29c1.86,1.55-0.98,3.72-1.9,5.12C80,51.42,78.56,54.17,77.26,53.66z M86.84,59.97
		c-0.74,5.55-2.05,9.95-4.6,9.61c-2.55-0.34-4.03-5.11-3.29-10.66c0.74-5.55,4.64-10.81,7.09-10.02
		C90.83,50.43,87.58,54.43,86.84,59.97z"/>
	<path class="st1" d="M52.31,96.29c2.01-19.5,2.76-60.17-20.34-65.07c-5.67-1-12.25,0.28-17.3,2.98
		C2.89,40.88,5.64,56.74,7.47,68.02c1.05,6.35,2.5,12.67,2.91,19.19C23.3,93.89,37.87,96.94,52.31,96.29z M41.84,53.71
		c2.44-1.06,6.1,3.26,6.71,10.04c0.61,6.78-1.95,14.28-4.5,14.51c-2.55,0.23-1.53-5.52-2.13-12.3
		C41.3,59.18,37.56,55.57,41.84,53.71z M23.68,52.31c1.57,0.79,2.04,3.6,0.88,6.63c-1.16,3.04-3.43,4.99-5.07,4.37
		c-1.64-0.63-0.56-2.27,0.6-5.31C21.24,54.96,20.96,50.94,23.68,52.31z M14.67,39.33c7.22-0.45,4.15,4.19,4.42,9.81
		c0.26,5.62-0.34,10.4-3.46,10.55c-3.12,0.15-5.87-4.29-6.13-9.92C9.22,44.15,11.54,39.52,14.67,39.33z M11.07,66.92
		c2.14-0.38,6.56,3.53,7.58,9.23c1.02,5.7,3.05,11.05,0.91,11.43c-2.14,0.38-6.57-3.34-7.59-9.04C10.95,72.84,8.93,67.3,11.07,66.92
		z"/>
	<path class="st2" d="M32.85,26.58c5.6,1.22,9.9,4.1,13.17,8.08c0.79-2.93,1.92-5.74,3.5-8.33c4.28-6.69,11.02-8.42,17.86-7.53
		c-1.05-1.99-3.09-4.78-5.1-6.24C55.4,6.94,42.7,3.59,34.06,5.75c-6.45,1.63-10.65,7.09-13.17,13.12c-1.24,2.88-2.22,5.91-3.06,9.02
		C22.7,26.17,28.14,25.73,32.85,26.58z M36.19,20.02c0,4.15-0.4,6.05-1.78,5.33c-2.22-1.16-2.99-1.58-2.99-5.73s2.24-5.55,3.79-5.55
		C36.77,14.06,36.19,15.87,36.19,20.02z M25.5,21.84c-1.56-0.22-2.32-3.14-0.05-7.3c2.37-4.34,6.27-6.51,8.69-5.28
		c1.41,0.72-2.71,4.49-3.41,7.21C29.56,21.05,27.06,22.05,25.5,21.84z"/>
	<path class="st3" d="M48.55,63.74c0.61,6.78-1.95,14.28-4.5,14.51c-2.55,0.23-1.53-5.52-2.13-12.3
		c-0.61-6.78-4.35-10.38-0.07-12.25C44.28,52.64,47.94,56.96,48.55,63.74z"/>
	<path class="st3" d="M30.73,16.46c-1.17,4.6-3.67,5.6-5.23,5.38s-2.32-3.14-0.05-7.3c2.37-4.34,6.27-6.51,8.69-5.28
		C35.54,9.97,31.42,13.74,30.73,16.46z"/>
	<path class="st3" d="M18.64,76.15c1.02,5.7,3.05,11.05,0.91,11.43s-6.57-3.34-7.59-9.04c-1.02-5.7-3.04-11.24-0.9-11.62
		C13.21,66.54,17.62,70.45,18.64,76.15z"/>
	<path class="st3" d="M36.19,20.02c0,4.15-0.4,6.05-1.78,5.33c-2.22-1.16-2.99-1.58-2.99-5.73s2.24-5.55,3.79-5.55
		C36.77,14.06,36.19,15.87,36.19,20.02z"/>
	<path class="st3" d="M77.36,46.5c1.35-3.45,4.43-5.09,6.59-3.29c1.86,1.55-0.98,3.72-1.9,5.12c-2.05,3.09-3.49,5.84-4.78,5.34
		C75.97,53.16,76.01,49.95,77.36,46.5z"/>
	<path class="st3" d="M19.08,49.15c0.26,5.62-0.34,10.4-3.46,10.55s-5.87-4.29-6.13-9.92c-0.26-5.62,2.06-10.25,5.18-10.45
		C21.88,38.88,18.82,43.52,19.08,49.15z"/>
	<path class="st3" d="M24.56,58.94c-1.16,3.04-3.43,4.99-5.07,4.37s-0.56-2.27,0.6-5.31c1.16-3.04,0.87-7.06,3.59-5.69
		C25.25,53.1,25.72,55.9,24.56,58.94z"/>
	<path class="st3" d="M65.88,82.76c-0.22,5.59-2.48,10.04-5.06,9.94c-2.57-0.1-2.66-3.6-2.44-9.19c0.22-5.59-0.33-10.38,2.13-11.15
		C65.17,70.9,66.1,77.17,65.88,82.76z"/>
	<path class="st3" d="M77.06,61.14c0.59,5.39-0.95,9.98-3.43,10.25c-2.48,0.27-3.06-3.07-3.65-8.46s-1.79-9.91,0.45-10.99
		C74.68,49.88,76.47,55.75,77.06,61.14z"/>
	<path class="st3" d="M63.08,43.34c1.34,5.43,0.39,10.34-2.11,10.95c-2.5,0.62-4.83-3.23-5.86-8.73c-1-5.33-5-8.53-1.6-10.13
		C58.9,32.9,61.74,37.91,63.08,43.34z"/>
	<path class="st3" d="M86.84,59.97c-0.74,5.55-2.05,9.95-4.6,9.61c-2.55-0.34-4.03-5.11-3.29-10.66c0.74-5.55,4.64-10.81,7.09-10.02
		C90.83,50.43,87.58,54.43,86.84,59.97z"/>
	<path d="M95.82,51.34c4.45-15.33-5.96-24.2-18.91-29.77c-1.57-0.7-3.2-1.3-4.85-1.78c-0.07-0.34-0.13-0.68-0.22-1.02
		c-2.6-7.52-9.41-12.7-16.54-15.45C35.5-4.1,20.42,1.02,15.35,22.65c-0.56,2.28-0.99,4.59-1.32,6.91c-2.19,1.17-4.18,2.64-5.78,4.42
		C-3.49,47.77,8.54,71.61,9.3,87.34c0.02,0.34,0.15,0.41,0.51,0.65c5.7,4.07,12.19,7.08,18.97,9.05
		c13.74,3.98,28.71,3.77,42.33-0.61c6.7-2.16,13.08-5.37,18.63-9.62c0.56-0.44,0.68-0.63,0.55-1.11c-0.77-2.83-1.09-5.52-1.03-8.44
		C89.36,68.12,93.4,60.22,95.82,51.34z M20.88,18.87c2.52-6.02,6.72-11.49,13.17-13.12c8.65-2.16,21.35,1.2,28.22,6.81
		c2.01,1.46,4.05,4.24,5.1,6.24c-6.84-0.89-13.58,0.84-17.86,7.53c-1.58,2.59-2.7,5.39-3.5,8.33c-3.27-3.98-7.56-6.85-13.17-8.08
		c-4.71-0.85-10.15-0.41-15.02,1.3C18.67,24.78,19.64,21.75,20.88,18.87z M11.09,86.68c-0.41-6.52-1.93-12.61-3.27-18.81
		c-2.4-11.18-4.94-26.99,6.84-33.67c5.04-2.7,11.63-3.98,17.3-2.98c23.11,4.9,22.35,45.57,20.34,65.07
		C37.87,96.94,24.01,93.35,11.09,86.68z M88.42,85.76c-5.92,3.3-11.72,6-18.18,7.75c-5.15,1.39-10.42,2.27-15.73,2.65
		c1.54-15.66,3.27-41.95-5.76-57.54c1.92-6.7,5.11-12.14,10.46-14.03c5.01-1.57,10.62,0.17,15.45,2.24
		c7.01,3.28,15.73,7.54,17.74,15.62c1.25,5.44-0.51,11.39-1.92,16.83C88.06,67.85,85.79,77.01,88.42,85.76z"/>
</g>
</svg>
