<?xml version="1.0" encoding="utf-8"?>
<!-- Generator: Adobe Illustrator 27.3.1, SVG Export Plug-In . SVG Version: 6.00 Build 0)  -->
<svg version="1.1" id="Layer_1" xmlns="http://www.w3.org/2000/svg" xmlns:xlink="http://www.w3.org/1999/xlink" x="0px" y="0px"
	 viewBox="0 0 100 100" style="enable-background:new 0 0 100 100;" xml:space="preserve">
<style type="text/css">
	.st0{fill:#FFFFFF;}
	.st1{fill:#63BC5E;}
</style>
<path class="st0" d="M-225.2,0c-27.6,0-50,22.4-50,50s22.4,50,50,50s50-22.4,50-50S-197.6,0-225.2,0z M-225.2,93
	c-23.8,0-43-19.2-43-43s19.3-43,43-43s43,19.2,43,43S-201.4,93-225.2,93z"/>
<g>
	<path class="st0" d="M-111.3,19.9v0.4h4.4v-8.2h-4.1c-2.4,0-4.3,1.9-4.3,4.3v2.3h2.8C-111.9,18.7-111.3,19.2-111.3,19.9z"/>
	<path class="st0" d="M-111.3,64.8c0,0.7-0.5,1.2-1.2,1.2h-2.8v3.2c0,2.4,1.9,4.3,4.3,4.3h42c2.4,0,4.3-1.9,4.3-4.3v-4.8h-46.7V64.8
		z"/>
	<path class="st0" d="M-91.8,42.4l-7.6-6.3l-7.6,6.3V25.2h-4.4v0.4c0,0.7-0.5,1.2-1.2,1.2h-2.8v31.1h2.8c0.7,0,1.2,0.5,1.2,1.2v0.4
		h46.7V25.2h-27.1V42.4z"/>
	<path class="st0" d="M-69,12.1h-22.8v8.2h27.1v-3.9C-64.7,14-66.6,12.1-69,12.1z"/>
</g>
<g>
	<path class="st1" d="M93.5,4.8c0,0-8.8-4.3-17.9-3.2c-9.6,1.2-17.4,5.9-26,14.3c-2-2.3-13-8-15.6-9.6c1.8,13.8,3.3,58.9,3.3,58.9
		l-8.9-11.7l-8.7,7.4c0,0,4.1-23.6,0-57.6C13.2,1.7,5.1,5.7,5.1,5.7V84c0,0,11.4-4.1,18.6-3.9c8.7,0.3,19.3,7.5,26.9,16.5
		c14.9-23,42.8-13.6,42.8-13.6s-0.6-18.4,0-24.6C94.9,44.6,93.5,4.8,93.5,4.8z"/>
	<path d="M92.5,5.4c0.1,0.1,0.2,0.3,0.3,0.3c0.1,0.1,0.1,0,0,0c0,0,0,0,0,0s-0.2-0.1-0.2-0.1l-0.3-0.1c-11.1-4.7-22.7-3-32.4,4
		c-3.2,2.3-6.1,4.9-8.9,7.7l-2.9-0.1c-1.9-1.8-4.7-3.2-7.1-4.6C38.7,11.2,35.4,9.4,33,8c0,0,3-2,3-2c-0.1,10,0.5,19.7,1.1,29.6
		c0.6,9.6,1.3,19.9,2.2,29.5c0,0,0.6,6.1,0.6,6.1s-4.2-4.8-4.2-4.8c0,0-8.9-11.7-8.9-11.7c0,0,2.9,0.3,2.9,0.3S21,62.3,21,62.3
		s-4.1,3.5-4.1,3.5s0.9-5.4,0.9-5.4c2-9.2,2.6-19,2.6-28.5c0-9.6-0.7-19.2-2.7-28.6c0,0,1.5,1.7,1.5,1.7c-3.1-0.9-6.9-0.3-10.1,0.6
		C8,6.1,6.8,6.5,5.8,6.9c0,0,0.8-1.2,0.8-1.2S6.1,84,6.1,84s-1.3-0.9-1.3-0.9c4.1-1.5,8.2-2.8,12.5-3.6c13.6-3.3,26.2,6.3,34.8,15.9
		c0,0-3.2,0.2-3.2,0.2c2.4-3.5,5.3-6.7,8.7-9.2c6.8-5.1,15.5-7.1,23.9-6.7c4.2,0.2,8.2,0.8,12.3,2.1c0,0-1.8,1.4-1.8,1.4
		c-0.3-9.8-0.5-19.6,0.4-29.5c0.5-9.7,0.4-19.5,0.3-29.3C92.7,19.3,92.5,11,92.4,6c0,0,0-0.6,0-0.6s0-0.2,0-0.2
		C92.4,5.3,92.5,5.4,92.5,5.4L92.5,5.4z M94.5,4.2c0.3,0.9,0.2,2.1,0.3,3c0.4,12,0.7,24.8,0.6,36.8c0.1,6.5-0.5,13-0.8,19.6
		c-0.1,7.1,0.1,14.3,0.4,21.5c-11.4-3.7-25.3-3.2-35,4.3c-3.7,2.8-6.6,6.7-9,10.7c-3.2-3.9-6.6-7.8-10.6-10.9
		c-4.8-3.8-10.3-7.1-16.4-7.6c-6.7-0.2-13.4,1.8-19.7,3.9c0,0,0-1.4,0-1.4L3.8,5.7l0-0.8c5.4-2.8,11.7-5.1,17.8-3.2
		c0.1,7.7,0.6,15.4,0.8,23.1c0.4,12.2,0.3,24.2-0.8,36.4c0,0-3.3-1.9-3.3-1.9s8.7-7.4,8.7-7.4s1.6-1.4,1.6-1.4
		C29.1,51.1,38.1,63,38.9,64c0,0-3.6,1.3-3.6,1.3c0.3-9.5,0.1-19.9-0.2-29.5c-0.5-9.8-0.7-19.7-3-29.2c0,0-1-3.9-1-3.9l4,1.9
		c2.1,1.2,5.7,3.2,8,4.4c2.9,1.8,5.7,3,8.1,5.5c0,0-2.9-0.1-2.9-0.1C60.5,2.4,75.9-4.3,92.6,3.1C93.1,3.4,94.1,3.7,94.5,4.2
		L94.5,4.2z"/>
</g>
<g>
	<line class="st1" x1="49.6" y1="27.5" x2="50" y2="72.3"/>
	<path d="M49.6,27.5c1,7.3,1.3,15,1.4,22.4c0,7.5-0.1,14.9-1,22.4c-1-7.4-1.2-14.9-1.4-22.4C48.6,42.5,48.7,34.9,49.6,27.5
		L49.6,27.5z"/>
</g>
</svg>
