<?xml version="1.0" encoding="utf-8"?>
<!-- Generator: Adobe Illustrator 27.3.1, SVG Export Plug-In . SVG Version: 6.00 Build 0)  -->
<svg version="1.1" id="Layer_1" xmlns="http://www.w3.org/2000/svg" xmlns:xlink="http://www.w3.org/1999/xlink" x="0px" y="0px"
	 viewBox="0 0 100 100" style="enable-background:new 0 0 100 100;" xml:space="preserve">
<style type="text/css">
	.st0{fill:#63BC5E;}
	.st1{fill:url(#SVGID_1_);}
</style>
<g>
	<polygon class="st0" points="67.9,69.4 84.1,98 95.4,85.7 	"/>
	<path d="M73,65.7c-1-0.7-2.3-1.2-3.4-1.8c-2,2.4-4.1,4.7-6.5,6.5c7.5,8.6,14.1,18.3,18.2,29c6.6,0.5,11-4.2,14.6-8.8
		c1.1-1.5,2.3-3.9,1.7-6.7C90.1,77.1,82,70.7,73,65.7z M84.2,94.8c-2.4-8-6.4-15.2-11.1-21.9c7,3.9,13.7,8.5,20.3,13.3
		c-0.2,0.7-0.4,1.3-1,2.2C90.5,90.8,87.3,93.8,84.2,94.8z"/>
	
		<linearGradient id="SVGID_1_" gradientUnits="userSpaceOnUse" x1="16.4102" y1="10.8483" x2="68.4429" y2="62.8812" gradientTransform="matrix(0.9838 -0.179 0.179 0.9838 -8.2497 9.757)">
		<stop  offset="0" style="stop-color:#CDF7D7"/>
		<stop  offset="0.3512" style="stop-color:#CBF5D5"/>
		<stop  offset="0.5386" style="stop-color:#C3EDCD"/>
		<stop  offset="0.6874" style="stop-color:#B5E1C0"/>
		<stop  offset="0.8158" style="stop-color:#A2CEAD"/>
		<stop  offset="0.93" style="stop-color:#89B796"/>
		<stop  offset="1" style="stop-color:#76A583"/>
	</linearGradient>
	<path class="st1" d="M72.8,23c-0.1-0.1-0.5-0.8-0.6-1.1c-6.3-10.4-18.9-17.4-31-16.1c-7.6,2.7-15.7,3.1-23-0.2
		C12.5,15.4,9,27,7.6,38.2C5.1,62.5,31.9,81.7,54.2,72.4C64.6,68.5,72.4,59.4,75,48.6C68.2,41.9,66.9,30.3,72.8,23z"/>
	<path d="M75.8,22.9C70.1,10,55.1,0.9,40.5,2.1c-3,0.5-5.5,1.4-7.9,2c-5.4,1.1-11-1.5-16.3-3.9c-7.6,11.4-12.2,24-14,37.6
		c-2.7,38.9,40.4,53.4,64.5,34.9c2.4-1.8,4.6-4.1,6.5-6.5c3.6-4.7,6.4-10.6,7.9-17.6l0.1-0.2l0.5-2.1C72.9,42.5,70.7,30.6,75.8,22.9
		z M54.2,72.4c-22.3,9.2-49.2-10-46.7-34.2C8.8,27,12.4,15.5,18,5.5c7.3,3.3,15.3,2.9,23,0.2c12.1-1.2,24.8,5.8,31.1,16.1
		c0.2,0.3,0.5,1,0.6,1.1c-5.9,7.2-4.6,19,2.3,25.5C72.4,59.2,64.5,68.4,54.2,72.4z"/>
</g>
</svg>
