<?xml version="1.0" encoding="utf-8"?>
<!-- Generator: Adobe Illustrator 27.3.1, SVG Export Plug-In . SVG Version: 6.00 Build 0)  -->
<svg version="1.1" id="Layer_1" xmlns="http://www.w3.org/2000/svg" xmlns:xlink="http://www.w3.org/1999/xlink" x="0px" y="0px"
	 viewBox="0 0 100 100" style="enable-background:new 0 0 100 100;" xml:space="preserve">
<style type="text/css">
	.st0{fill:#63BC5E;}
	.st1{fill:#FFFFFF;}
	.st2{fill:url(#SVGID_1_);}
	.st3{fill:url(#SVGID_00000092452919678699548060000011139710125375103148_);}
	.st4{fill:url(#SVGID_00000044865547650087059900000009441818429095062408_);}
</style>
<polygon class="st0" points="63.7,70.6 73,97.3 84.5,88.5 "/>
<path class="st1" d="M-225.2,0c-27.6,0-50,22.4-50,50s22.4,50,50,50s50-22.4,50-50S-197.6,0-225.2,0z M-225.2,93
	c-23.8,0-43-19.2-43-43s19.3-43,43-43s43,19.2,43,43S-201.4,93-225.2,93z"/>
<g>
	<path class="st1" d="M-111.3,19.9v0.4h4.4v-8.2h-4.1c-2.4,0-4.3,1.9-4.3,4.3v2.3h2.8C-111.9,18.7-111.3,19.2-111.3,19.9z"/>
	<path class="st1" d="M-111.3,64.8c0,0.7-0.5,1.2-1.2,1.2h-2.8v3.2c0,2.4,1.9,4.3,4.3,4.3h42c2.4,0,4.3-1.9,4.3-4.3v-4.8h-46.7
		L-111.3,64.8L-111.3,64.8z"/>
	<path class="st1" d="M-91.8,42.4l-7.6-6.3l-7.6,6.3V25.2h-4.4v0.4c0,0.7-0.5,1.2-1.2,1.2h-2.8v31.1h2.8c0.7,0,1.2,0.5,1.2,1.2v0.4
		h46.7V25.2h-27.1C-91.8,25.2-91.8,42.4-91.8,42.4z"/>
	<path class="st1" d="M-69,12.1h-22.8v8.2h27.1v-3.9C-64.7,14-66.6,12.1-69,12.1z"/>
</g>
<path d="M68.6,68.2c-0.8-0.7-1.7-1.4-2.6-2c-2,1.8-4.2,3.3-6.5,4.5c5,8.5,9.1,17.7,10.9,27.3c5.5,1.5,9.9-1.8,13.7-5.2
	c1.1-1.1,2.5-2.9,2.5-5.4C81.3,80.4,75.4,73.8,68.6,68.2z M73.6,94.5c-0.8-7.1-3-13.8-6-20.2c5.3,4.4,10.2,9.3,15.1,14.3
	c-0.2,0.5-0.6,1.1-1.2,1.7C79.5,92.1,76.3,94.1,73.6,94.5z"/>
<linearGradient id="SVGID_1_" gradientUnits="userSpaceOnUse" x1="19.8063" y1="15.3455" x2="64.5067" y2="60.046">
	<stop  offset="0" style="stop-color:#CDF7D7"/>
	<stop  offset="0.3512" style="stop-color:#CBF5D5"/>
	<stop  offset="0.5386" style="stop-color:#C3EDCD"/>
	<stop  offset="0.6874" style="stop-color:#B5E1C0"/>
	<stop  offset="0.8158" style="stop-color:#A2CEAD"/>
	<stop  offset="0.93" style="stop-color:#89B796"/>
	<stop  offset="1" style="stop-color:#76A583"/>
</linearGradient>
<path class="st2" d="M72.2,29.7c-0.1-0.1-0.3-0.8-0.4-1.1C68.1,18.9,58.5,11,48.1,10.2c-6.9,1.1-13.7,0.2-19.4-3.7
	c-6.3,7.5-11.1,16.7-13.9,26C8.8,52.6,28.6,73,48.9,68.6c9.3-1.7,17.4-8.3,21.3-17C65.4,45,66.1,34.9,72.2,29.7z"/>
<path d="M74.7,30.1C71.9,18.2,60.6,8.2,48.1,7c-2.6-0.1-4.9,0.4-7,0.4C36.4,7.5,32,4.4,27.9,1.6C19.8,10.1,13.9,20,10.3,31.3
	C2,63.8,36.3,82.7,59.5,70.7c2.3-1.2,4.5-2.7,6.5-4.5c3.8-3.4,7.1-7.9,9.4-13.7l0.1-0.2c0,0,0.7-1.7,0.7-1.7
	C69.3,46.2,69.3,35.8,74.7,30.1z M48.9,68.6C28.6,73,8.8,52.6,14.7,32.5c2.8-9.3,7.6-18.5,13.9-26c5.7,3.9,12.5,4.8,19.4,3.7
	c10.4,0.8,20,8.7,23.8,18.4c0.2,0.3,0.3,1,0.4,1.1c-6.1,5.2-6.9,15.4-2,21.9C66.3,60.3,58.2,66.8,48.9,68.6z"/>
<g>
	
		<linearGradient id="SVGID_00000003820199806043349830000010255655554688934559_" gradientUnits="userSpaceOnUse" x1="147.6528" y1="-61.3336" x2="112.0609" y2="-61.3336" gradientTransform="matrix(1 0 0 -1 0 102)">
		<stop  offset="0" style="stop-color:#CDF7D7"/>
		<stop  offset="0.3512" style="stop-color:#CBF5D5"/>
		<stop  offset="0.5386" style="stop-color:#C3EDCD"/>
		<stop  offset="0.6874" style="stop-color:#B5E1C0"/>
		<stop  offset="0.8158" style="stop-color:#A2CEAD"/>
		<stop  offset="0.93" style="stop-color:#89B796"/>
		<stop  offset="1" style="stop-color:#76A583"/>
	</linearGradient>
	<path style="fill:url(#SVGID_00000003820199806043349830000010255655554688934559_);" d="M120.6,129.2c-1.7,3.8,0.8,7.2,5,6.8
		c7,8.8,5.7,21.7-0.6,30.5c-3.2,4.4-6.4,8-8.4,12.5c-2.3,4.9-3.6,10.6-4.6,16.1c0.5,1.9,1,4.4,1.4,7.3c11.8-11.3,28-8.8,33.6-7.4
		c-0.1-4.6-0.4-16,0.1-20.5c1.1-11.3,0.2-42,0-47.7c-2.2-0.9-8.4-3.2-14.6-2.4c-4.1,0.5-8,1.8-11.8,4c0.1,0.1,0.2,0.3,0.2,0.3
		L120.6,129.2z"/>
	<path class="st0" d="M96.6,146.9c1,4.5-2.8,8.5-7.2,7.5l-0.7,2.9c3.4,2.2,3.6,7.5,0.6,10.2c1.4,5.1,4.6,9.6,8.3,13.3
		c3.2,3.1,6.8,5.8,10.6,8c0.8-4.1,2-8.2,3.9-12.1c2.3-4.8,6.2-8.9,9.4-12.8c6.3-7.5,8.2-18.6,3.8-27.6c-4.7,1.7-8.4-2.8-7.5-7.2
		c-4.1-3.3-8.7-6.1-13.5-8.4c0.1,1.2,0.2,2.5,0.2,3.8c0.5,7.8-4.9,13.9-9.6,19.4C95.9,144.8,96.4,145.9,96.6,146.9z M106.8,155.7
		c0.1-0.1,0.2-0.2,0.4-0.4c3.2-2.9,3.3-7.3,1.7-11.3c3.7,3.5,3.6,10.3-0.7,13.4c-0.6,0.5-1.1,1-1.6,1.6c-0.8,1-1.4,2.2-1.7,3.5
		c-0.5,2.1-0.3,4.4,0.2,6.6l0,0c-1.3-2-2.1-4.4-1.9-6.9C103.4,159.8,104.8,157.3,106.8,155.7z"/>
	
		<linearGradient id="SVGID_00000136407887466746100100000000710009504638217880_" gradientUnits="userSpaceOnUse" x1="69.7758" y1="-62.5486" x2="108.3356" y2="-62.5486" gradientTransform="matrix(1 0 0 -1 0 102)">
		<stop  offset="0" style="stop-color:#CDF7D7"/>
		<stop  offset="0.3512" style="stop-color:#CBF5D5"/>
		<stop  offset="0.5386" style="stop-color:#C3EDCD"/>
		<stop  offset="0.6874" style="stop-color:#B5E1C0"/>
		<stop  offset="0.8158" style="stop-color:#A2CEAD"/>
		<stop  offset="0.93" style="stop-color:#89B796"/>
		<stop  offset="1" style="stop-color:#76A583"/>
	</linearGradient>
	<path style="fill:url(#SVGID_00000136407887466746100100000000710009504638217880_);" d="M86.6,166.4c1.7-0.6,2.9-2.1,3-4.1
		c0.2-1.9-0.9-3.6-2.6-4.3l0.1-0.5c0.1-0.5,1.1-4.4,1.2-4.8l0.8,0.2c5.9,2,8.3-6.5,2.9-8.4c2.6-4.6,6.4-8.8,7.7-13.4
		c0.1-0.3,0.2-0.6,0.2-1c-12.2-7.1-26.4-3.6-30.1-2.5v68c3.3-1,9.8-3,14.8-3c0.2,0,0.5,0,0.7,0c6.3,0.2,14.1,4.3,20.9,10.7
		c1.2-3.4,1.8-6.6,2.2-8.9C97.8,188.3,88,179.1,86.6,166.4z"/>
	<path class="st0" d="M105.4,210.6c0.8,0.4,2.3,0.8,4,0.9c1.3,0,2.1-0.2,2.5-0.3c-0.2-5.9-0.9-11-1.7-14.4
		C109.5,200.6,108.1,206,105.4,210.6z"/>
	<path d="M150,125.7v-0.9l-0.8-0.4c-0.3-0.2-8.5-4.1-17.1-3c-4.8,0.6-9.2,2.1-13.6,4.8c0.6,0.6,1.2,1.1,1.7,1.7c0,0,0.2,0.2,0.4,0.4
		c3.8-2.2,7.7-3.5,11.8-4c6.3-0.8,12.5,1.5,14.7,2.4c0.2,5.7,1.1,36.4,0,47.7c-0.5,4.5-0.2,15.9-0.1,20.5
		c-5.6-1.3-21.7-3.8-33.6,7.4c0.2,1.2,0.3,2.5,0.4,3.8c13.1-14.7,33.3-8.2,34.3-7.9l2,0.7l-0.1-2.1c0-0.2-0.5-16.7,0-22.1
		C151.3,162.1,150.1,127.1,150,125.7z"/>
	<path d="M85.3,192.7c-0.2,0-0.4,0-0.7,0c-5,0-11.6,1.9-14.8,3v-68c3.8-1.1,17.9-4.7,30.1,2.5c0.2-1,0.4-2,0.5-3.1
		c-15.1-8.2-32.4-2-32.6-1.9l-1,0.4v74.3l2-0.7c0.1,0,10.2-3.7,16.4-3.4c5.9,0.2,13.4,4.3,19.8,10.7c0.4-1,0.8-2,1.2-3
		C99.4,197,91.6,193,85.3,192.7z"/>
	<path d="M99.6,131.1c-1.2,4.5-5.1,8.8-7.7,13.4c5.4,1.9,3,10.4-2.9,8.4l-0.7-0.2c-0.1,0.4-1.1,4.3-1.2,4.8L87,158
		c1.7,0.7,2.8,2.5,2.6,4.3c-0.1,2-1.3,3.5-3,4.1c1.4,12.7,11.2,21.8,21.7,28.1c0.1-0.6,0.2-1.2,0.2-1.7l0,0c0.1-0.6,0.6-1.1,1.2-1.2
		c0.6-0.1,1.2,0.3,1.5,0.9c0.3,0.7,0.5,1.5,0.8,2.6c1-5.5,2.3-11.2,4.6-16.1c2-4.4,5.2-8,8.4-12.5c6.3-8.9,7.6-21.7,0.6-30.5
		c-4.2,0.4-6.8-2.9-5-6.8l0.4-0.7c0,0-0.1-0.1-0.2-0.3c-0.2-0.2-0.4-0.4-0.4-0.4c-0.6-0.6-1.1-1.2-1.7-1.7
		c-5.7-5.3-12.5-9.2-19.4-12.4c0.6,4.3,1.4,9.1,1.1,13.4c-0.1,1-0.3,2.1-0.5,3.1C99.8,130.5,99.7,130.8,99.6,131.1z M104.7,124.6
		c0-1.3-0.1-2.5-0.2-3.8c4.8,2.4,9.3,5.1,13.5,8.4c-0.9,4.4,2.8,8.9,7.5,7.2c4.4,9,2.5,20-3.8,27.6c-3.3,3.9-7.1,8-9.4,12.8
		c-1.9,3.9-3.1,8-3.9,12.1c-3.9-2.3-7.5-4.9-10.6-8c-3.7-3.7-6.9-8.2-8.3-13.3c3.1-2.7,2.9-8-0.6-10.2l0.7-2.9
		c4.4,1,8.2-3.1,7.2-7.5c-0.2-1.1-0.7-2.1-1.5-3C99.8,138.4,105.2,132.4,104.7,124.6z"/>
	<path d="M112,195c-0.3-1-0.5-1.9-0.8-2.6c-0.2-0.6-0.8-1-1.5-0.9c-0.6,0.1-1.1,0.6-1.2,1.2l0,0c-0.1,0.5-0.1,1-0.2,1.7
		c-0.3,2.3-1,5.5-2.2,8.9c-0.3,1-0.7,2-1.2,3c-0.6,1.3-1.2,2.6-2,3.8l-0.4,0.6l0.4,0.6c1.1,1.7,4.5,2.2,6.3,2.3c0.1,0,0.3,0,0.4,0
		c1.5,0,3.3-0.3,4.2-1.4l0.2-0.3v-0.4c-0.1-1.9-0.2-3.7-0.3-5.4c-0.1-1.3-0.2-2.6-0.4-3.8C113,199.5,112.6,197,112,195z
		 M109.4,211.5c-1.7-0.1-3.2-0.5-4-0.9c2.7-4.6,4.1-10,4.8-13.9c0.8,3.5,1.5,8.6,1.7,14.4C111.5,211.3,110.7,211.5,109.4,211.5z"/>
	<path d="M105.1,169.2c-0.5-2.3-0.7-4.6-0.2-6.6c0.3-1.3,0.9-2.5,1.7-3.5c0.5-0.6,1-1.1,1.6-1.6c4.3-3.1,4.4-9.9,0.7-13.4
		c1.6,4,1.5,8.4-1.7,11.3c-0.1,0.1-0.2,0.3-0.4,0.4c-2,1.6-3.4,4.1-3.6,6.6C103,164.8,103.8,167.3,105.1,169.2L105.1,169.2z"/>
</g>
</svg>
